<svg xmlns="http://www.w3.org/2000/svg" viewBox="0 0 512 512" width="512" height="512" role="img" aria-label="ByteSpace">
  <rect width="512" height="512" rx="112" fill="#003be2"/>
  <g fill="#d4fb20" transform="translate(105.5 80) scale(10.375)">
    <path d="M0 32V0h14.5C22.5 0 27 3.4 27 9c0 3.5-1.9 6.2-5 7.4 3.9 1.1 6.1 4 6.1 7.7C28.1 28.9 23.3 32 15 32H0Zm8-13.7h5.6c3.1 0 4.7-1.2 4.7-3.6 0-2.3-1.6-3.5-4.7-3.5H8v7.1Zm0 7.2h6.2c3.4 0 5.1-1.3 5.1-3.8 0-2.5-1.7-3.8-5.1-3.8H8V25.5Z"/>
  </g>
</svg>
